<?xml version="1.0" encoding="utf-8"?>
<!-- Generator: Adobe Illustrator 16.0.0, SVG Export Plug-In . SVG Version: 6.00 Build 0)  -->
<!DOCTYPE svg PUBLIC "-//W3C//DTD SVG 1.1//EN" "http://www.w3.org/Graphics/SVG/1.1/DTD/svg11.dtd">
<svg version="1.1" id="Layer_1" xmlns="http://www.w3.org/2000/svg" xmlns:xlink="http://www.w3.org/1999/xlink" x="0px" y="0px"
	 width="288.001px" height="288px" viewBox="0 0 288.001 288" enable-background="new 0 0 288.001 288" xml:space="preserve">
<g>
	<radialGradient id="XMLID_2_" cx="75.6162" cy="-52.4658" r="206.7743" gradientUnits="userSpaceOnUse">
		<stop  offset="0" style="stop-color:#313131"/>
		<stop  offset="0.2261" style="stop-color:#292929"/>
		<stop  offset="0.5408" style="stop-color:#161616"/>
		<stop  offset="1" style="stop-color:#000000"/>
	</radialGradient>
	<rect id="XMLID_42_" x="0" y="0" fill="url(#XMLID_2_)" width="288.001" height="288"/>
	<g display="none">
		<g display="inline">
			<path fill="#606060" d="M36.786,257.462v-14.257h3.316c1.787,0,2.681,0.913,2.681,2.74v9.451c0,1.377-0.762,2.065-2.284,2.065
				H36.786z M38.692,255.734h1.43c0.503,0,0.755-0.211,0.755-0.636v-9.134c0-0.688-0.285-1.032-0.854-1.032h-1.33V255.734z"/>
			<path fill="#606060" d="M46.773,257.462h-1.906v-11.814c0-1.628,0.762-2.442,2.284-2.442h1.43c1.521,0,2.283,0.814,2.283,2.442
				v11.814h-1.906v-5.222h-2.185V257.462z M48.958,250.512v-4.745c0-0.556-0.278-0.834-0.834-0.834h-0.517
				c-0.556,0-0.834,0.278-0.834,0.834v4.745H48.958z"/>
			<path fill="#606060" d="M53.048,243.205h3.733c1.456,0,2.184,0.814,2.184,2.442v3.515c0,1.244-0.377,2.032-1.132,2.362
				l1.331,5.938h-1.808l-1.251-5.759h-1.151v5.759h-1.906V243.205z M54.954,250.075h1.251c0.569,0,0.854-0.344,0.854-1.032v-3.078
				c0-0.688-0.284-1.032-0.854-1.032h-1.251V250.075z"/>
			<path fill="#606060" d="M62.956,257.462H61.05v-14.257h1.906V257.462z M67.345,257.462h-1.906l-2.383-6.97v-0.119l1.985-7.168
				h1.747l-2.005,7.089L67.345,257.462z"/>
		</g>
		<g display="inline">
			<path fill="#606060" d="M22.193,264.563l0.812,2.063l0.81-2.063h0.328l-1.003,2.454h-0.27l-1.006-2.454H22.193z"/>
			<path fill="#606060" d="M27.515,266.741v0.276h-1.666v-2.454h1.635v0.276H26.16v0.795h1.151v0.26H26.16v0.847H27.515z"/>
			<path fill="#606060" d="M29.185,265.773c0-0.147,0.025-0.295,0.077-0.441c0.052-0.146,0.128-0.277,0.229-0.394
				c0.1-0.116,0.223-0.211,0.368-0.282c0.145-0.07,0.31-0.106,0.494-0.106c0.219,0,0.406,0.049,0.563,0.148
				c0.156,0.099,0.272,0.229,0.349,0.388l-0.245,0.158c-0.037-0.078-0.081-0.144-0.133-0.197c-0.052-0.053-0.108-0.096-0.17-0.127
				c-0.061-0.033-0.124-0.056-0.188-0.07c-0.064-0.014-0.128-0.02-0.189-0.02c-0.136,0-0.257,0.027-0.361,0.084
				c-0.105,0.057-0.193,0.131-0.265,0.222s-0.125,0.193-0.16,0.308c-0.036,0.113-0.054,0.229-0.054,0.344
				c0,0.129,0.021,0.252,0.063,0.368s0.103,0.219,0.178,0.31c0.076,0.089,0.166,0.161,0.271,0.214
				c0.104,0.054,0.216,0.079,0.338,0.079c0.064,0,0.131-0.008,0.199-0.023c0.067-0.016,0.133-0.043,0.195-0.078
				c0.063-0.036,0.12-0.08,0.175-0.135c0.054-0.055,0.099-0.119,0.133-0.195l0.259,0.142c-0.039,0.093-0.094,0.174-0.164,0.244
				s-0.149,0.13-0.238,0.178s-0.183,0.085-0.281,0.11c-0.1,0.025-0.196,0.038-0.291,0.038c-0.168,0-0.322-0.036-0.463-0.11
				s-0.263-0.17-0.364-0.289c-0.104-0.118-0.183-0.253-0.239-0.404C29.212,266.084,29.185,265.93,29.185,265.773z"/>
			<path fill="#606060" d="M34.833,264.84h-0.848v2.178h-0.311v-2.178h-0.847v-0.276h2.005V264.84z"/>
			<path fill="#606060" d="M37.47,267.035c-0.173,0-0.33-0.036-0.472-0.106c-0.142-0.069-0.263-0.163-0.364-0.279
				s-0.18-0.25-0.235-0.399s-0.083-0.303-0.083-0.46c0-0.163,0.029-0.32,0.088-0.47c0.06-0.15,0.141-0.282,0.244-0.397
				s0.227-0.206,0.368-0.274s0.295-0.102,0.461-0.102c0.173,0,0.33,0.035,0.471,0.108c0.141,0.072,0.262,0.167,0.362,0.285
				c0.102,0.117,0.18,0.25,0.235,0.399c0.056,0.148,0.083,0.3,0.083,0.454c0,0.163-0.029,0.32-0.088,0.47
				c-0.059,0.15-0.14,0.282-0.242,0.396c-0.103,0.113-0.225,0.205-0.366,0.272C37.791,267.001,37.636,267.035,37.47,267.035z
				 M36.63,265.79c0,0.125,0.021,0.245,0.061,0.362c0.04,0.115,0.098,0.219,0.171,0.309c0.074,0.09,0.163,0.162,0.267,0.215
				s0.219,0.079,0.346,0.079c0.131,0,0.249-0.028,0.353-0.085s0.191-0.13,0.265-0.221c0.072-0.092,0.128-0.194,0.166-0.31
				c0.037-0.115,0.057-0.231,0.057-0.35c0-0.124-0.021-0.244-0.061-0.361c-0.04-0.116-0.098-0.218-0.173-0.308
				c-0.075-0.088-0.164-0.159-0.267-0.212c-0.103-0.054-0.216-0.079-0.34-0.079c-0.132,0-0.249,0.027-0.353,0.082
				c-0.104,0.056-0.192,0.128-0.265,0.219c-0.072,0.089-0.129,0.191-0.168,0.307S36.63,265.671,36.63,265.79z"/>
			<path fill="#606060" d="M40.447,267.018v-2.454h1.051c0.108,0,0.208,0.022,0.299,0.067s0.169,0.105,0.235,0.18
				c0.065,0.075,0.116,0.159,0.153,0.252c0.037,0.094,0.056,0.189,0.056,0.285c0,0.085-0.013,0.168-0.036,0.247
				c-0.024,0.08-0.059,0.151-0.104,0.217c-0.046,0.064-0.1,0.12-0.163,0.165c-0.063,0.047-0.134,0.08-0.213,0.102l0.595,0.939
				h-0.353l-0.56-0.882h-0.65v0.882H40.447z M40.757,265.859H41.5c0.064,0,0.123-0.014,0.175-0.041
				c0.052-0.028,0.097-0.065,0.133-0.112c0.037-0.048,0.066-0.103,0.087-0.165c0.021-0.062,0.031-0.126,0.031-0.193
				c0-0.069-0.013-0.134-0.036-0.194c-0.024-0.062-0.057-0.116-0.098-0.163c-0.04-0.047-0.087-0.084-0.142-0.11
				c-0.054-0.027-0.11-0.04-0.171-0.04h-0.723V265.859z"/>
			<path fill="#606060" d="M48.258,266.386c0,0.094-0.02,0.18-0.058,0.259c-0.037,0.078-0.09,0.145-0.155,0.2
				c-0.065,0.055-0.142,0.099-0.228,0.128c-0.087,0.029-0.18,0.045-0.278,0.045h-1.165v-2.454h1.22c0.086,0,0.163,0.019,0.231,0.056
				c0.069,0.037,0.128,0.084,0.177,0.143s0.086,0.126,0.112,0.201c0.026,0.074,0.04,0.15,0.04,0.227
				c0,0.122-0.031,0.234-0.092,0.339c-0.062,0.103-0.148,0.181-0.261,0.231c0.141,0.041,0.251,0.117,0.333,0.229
				S48.258,266.232,48.258,266.386z M46.685,264.833v0.819h0.781c0.056,0,0.106-0.012,0.152-0.033s0.086-0.051,0.119-0.088
				s0.061-0.08,0.08-0.129c0.02-0.051,0.029-0.103,0.029-0.158c0-0.058-0.01-0.111-0.028-0.162s-0.043-0.095-0.074-0.131
				c-0.031-0.037-0.069-0.066-0.114-0.087s-0.093-0.031-0.143-0.031H46.685z M47.944,266.33c0-0.056-0.01-0.109-0.029-0.161
				s-0.047-0.097-0.08-0.137c-0.033-0.039-0.073-0.07-0.119-0.093c-0.046-0.023-0.097-0.035-0.152-0.035h-0.878v0.844h0.854
				c0.058,0,0.11-0.012,0.158-0.035c0.049-0.022,0.092-0.053,0.128-0.092c0.037-0.037,0.066-0.082,0.087-0.133
				S47.944,266.386,47.944,266.33z"/>
			<path fill="#606060" d="M49.776,267.018l1.009-2.454h0.256l1.006,2.454h-0.331l-0.291-0.719h-1.029l-0.287,0.719H49.776z
				 M50.913,264.923l-0.456,1.134h0.898L50.913,264.923z"/>
			<path fill="#606060" d="M53.602,265.773c0-0.147,0.025-0.295,0.077-0.441c0.052-0.146,0.128-0.277,0.229-0.394
				c0.1-0.116,0.223-0.211,0.368-0.282c0.145-0.07,0.31-0.106,0.494-0.106c0.219,0,0.406,0.049,0.563,0.148
				c0.156,0.099,0.272,0.229,0.349,0.388l-0.245,0.158c-0.037-0.078-0.081-0.144-0.133-0.197c-0.052-0.053-0.108-0.096-0.17-0.127
				c-0.061-0.033-0.124-0.056-0.188-0.07c-0.064-0.014-0.128-0.02-0.189-0.02c-0.136,0-0.257,0.027-0.361,0.084
				c-0.105,0.057-0.193,0.131-0.265,0.222s-0.125,0.193-0.16,0.308c-0.036,0.113-0.054,0.229-0.054,0.344
				c0,0.129,0.021,0.252,0.063,0.368s0.103,0.219,0.178,0.31c0.076,0.089,0.166,0.161,0.271,0.214
				c0.104,0.054,0.216,0.079,0.338,0.079c0.064,0,0.131-0.008,0.199-0.023c0.067-0.016,0.133-0.043,0.195-0.078
				c0.063-0.036,0.12-0.08,0.175-0.135c0.054-0.055,0.099-0.119,0.133-0.195l0.259,0.142c-0.039,0.093-0.094,0.174-0.164,0.244
				s-0.149,0.13-0.238,0.178s-0.183,0.085-0.281,0.11c-0.1,0.025-0.196,0.038-0.291,0.038c-0.168,0-0.322-0.036-0.463-0.11
				s-0.263-0.17-0.364-0.289c-0.104-0.118-0.183-0.253-0.239-0.404C53.629,266.084,53.602,265.93,53.602,265.773z"/>
			<path fill="#606060" d="M57.5,267.018v-2.451h0.311v1.355l1.266-1.358h0.335l-0.985,1.082l1.041,1.372h-0.339l-0.892-1.192
				l-0.426,0.442v0.75H57.5z"/>
			<path fill="#606060" d="M62.865,266.686c-0.217,0.232-0.465,0.35-0.746,0.35c-0.164,0-0.315-0.036-0.455-0.107
				s-0.26-0.166-0.361-0.281c-0.101-0.117-0.181-0.25-0.24-0.4c-0.059-0.148-0.088-0.304-0.088-0.463
				c0-0.166,0.029-0.322,0.087-0.472c0.058-0.148,0.137-0.28,0.238-0.394c0.102-0.114,0.223-0.205,0.362-0.271
				c0.141-0.066,0.293-0.1,0.457-0.1c0.237,0,0.433,0.049,0.586,0.147c0.153,0.1,0.27,0.229,0.351,0.388l-0.238,0.166
				c-0.074-0.143-0.172-0.249-0.294-0.318c-0.122-0.068-0.26-0.104-0.411-0.104c-0.125,0-0.237,0.026-0.339,0.081
				c-0.102,0.054-0.188,0.126-0.26,0.214c-0.071,0.09-0.127,0.191-0.166,0.308c-0.039,0.117-0.059,0.237-0.059,0.361
				c0,0.132,0.022,0.256,0.065,0.372c0.044,0.116,0.104,0.219,0.181,0.308c0.075,0.089,0.165,0.158,0.27,0.209
				c0.104,0.051,0.216,0.076,0.338,0.076c0.268,0,0.509-0.129,0.723-0.388v-0.339h-0.528v-0.234h0.791v1.224h-0.263V266.686z"/>
			<path fill="#606060" d="M64.991,267.018v-2.454h1.051c0.108,0,0.208,0.022,0.299,0.067s0.169,0.105,0.235,0.18
				c0.065,0.075,0.116,0.159,0.153,0.252c0.037,0.094,0.056,0.189,0.056,0.285c0,0.085-0.013,0.168-0.036,0.247
				c-0.024,0.08-0.059,0.151-0.104,0.217c-0.046,0.064-0.1,0.12-0.163,0.165c-0.063,0.047-0.134,0.08-0.213,0.102l0.595,0.939
				h-0.353l-0.56-0.882h-0.65v0.882H64.991z M65.301,265.859h0.743c0.064,0,0.123-0.014,0.175-0.041
				c0.052-0.028,0.097-0.065,0.133-0.112c0.037-0.048,0.066-0.103,0.087-0.165c0.021-0.062,0.031-0.126,0.031-0.193
				c0-0.069-0.013-0.134-0.036-0.194c-0.024-0.062-0.057-0.116-0.098-0.163c-0.04-0.047-0.087-0.084-0.142-0.11
				c-0.054-0.027-0.11-0.04-0.171-0.04h-0.723V265.859z"/>
			<path fill="#606060" d="M69.654,267.035c-0.173,0-0.33-0.036-0.472-0.106c-0.142-0.069-0.263-0.163-0.364-0.279
				s-0.18-0.25-0.235-0.399s-0.083-0.303-0.083-0.46c0-0.163,0.029-0.32,0.088-0.47c0.06-0.15,0.141-0.282,0.244-0.397
				s0.227-0.206,0.368-0.274s0.295-0.102,0.461-0.102c0.173,0,0.33,0.035,0.471,0.108c0.141,0.072,0.262,0.167,0.362,0.285
				c0.102,0.117,0.18,0.25,0.235,0.399c0.056,0.148,0.083,0.3,0.083,0.454c0,0.163-0.029,0.32-0.088,0.47
				c-0.059,0.15-0.14,0.282-0.242,0.396c-0.103,0.113-0.225,0.205-0.366,0.272C69.974,267.001,69.82,267.035,69.654,267.035z
				 M68.814,265.79c0,0.125,0.021,0.245,0.061,0.362c0.04,0.115,0.098,0.219,0.171,0.309c0.074,0.09,0.163,0.162,0.267,0.215
				s0.219,0.079,0.346,0.079c0.131,0,0.249-0.028,0.353-0.085s0.191-0.13,0.265-0.221c0.072-0.092,0.128-0.194,0.166-0.31
				c0.037-0.115,0.057-0.231,0.057-0.35c0-0.124-0.021-0.244-0.061-0.361c-0.04-0.116-0.098-0.218-0.173-0.308
				c-0.075-0.088-0.164-0.159-0.267-0.212c-0.103-0.054-0.216-0.079-0.34-0.079c-0.132,0-0.249,0.027-0.353,0.082
				c-0.104,0.056-0.192,0.128-0.265,0.219c-0.072,0.089-0.129,0.191-0.168,0.307S68.814,265.671,68.814,265.79z"/>
			<path fill="#606060" d="M73.636,266.755c0.143,0,0.262-0.028,0.355-0.083c0.095-0.056,0.17-0.127,0.227-0.216
				s0.097-0.19,0.119-0.304c0.023-0.115,0.035-0.23,0.035-0.349v-1.24h0.311v1.24c0,0.166-0.019,0.323-0.057,0.473
				c-0.038,0.148-0.099,0.279-0.182,0.392c-0.083,0.113-0.19,0.202-0.323,0.269c-0.133,0.065-0.293,0.099-0.482,0.099
				c-0.195,0-0.36-0.035-0.494-0.104c-0.134-0.07-0.241-0.161-0.323-0.275c-0.081-0.113-0.141-0.245-0.176-0.395
				c-0.036-0.148-0.054-0.301-0.054-0.458v-1.24h0.311v1.24c0,0.123,0.013,0.241,0.037,0.354c0.023,0.114,0.064,0.216,0.121,0.303
				c0.056,0.088,0.131,0.158,0.225,0.213C73.378,266.728,73.496,266.755,73.636,266.755z"/>
			<path fill="#606060" d="M76.926,265.145v1.873h-0.311v-2.454h0.242l1.521,1.911v-1.908h0.312v2.451h-0.263L76.926,265.145z"/>
			<path fill="#606060" d="M80.66,267.018v-2.454h0.851c0.195,0,0.368,0.032,0.517,0.097s0.272,0.152,0.371,0.263
				c0.1,0.11,0.174,0.24,0.224,0.389c0.049,0.149,0.074,0.308,0.074,0.476c0,0.187-0.028,0.355-0.083,0.506
				c-0.056,0.151-0.135,0.28-0.239,0.388c-0.104,0.106-0.229,0.189-0.375,0.248c-0.146,0.06-0.309,0.089-0.488,0.089H80.66z
				 M82.381,265.787c0-0.139-0.02-0.266-0.058-0.382s-0.095-0.216-0.169-0.3c-0.075-0.082-0.167-0.147-0.275-0.195
				c-0.108-0.047-0.231-0.07-0.369-0.07h-0.54v1.901h0.54c0.14,0,0.266-0.024,0.375-0.073c0.109-0.048,0.2-0.115,0.272-0.2
				c0.073-0.085,0.128-0.187,0.166-0.303S82.381,265.923,82.381,265.787z"/>
		</g>
		
			<rect x="37.483" y="261.016" display="inline" fill-rule="evenodd" clip-rule="evenodd" fill="#606060" width="30.766" height="0.268"/>
	</g>
	<g>
		<defs>
			<rect id="XMLID_41_" x="0" y="0" width="288.001" height="288"/>
		</defs>
		<clipPath id="XMLID_3_">
			<use xlink:href="#XMLID_41_"  overflow="visible"/>
		</clipPath>
		<g clip-path="url(#XMLID_3_)">
			<linearGradient id="SVGID_1_" gradientUnits="userSpaceOnUse" x1="425.9902" y1="401.4902" x2="149.7063" y2="125.2063">
				<stop  offset="0" style="stop-color:#313131"/>
				<stop  offset="0.2261" style="stop-color:#292929"/>
				<stop  offset="0.5408" style="stop-color:#161616"/>
				<stop  offset="1" style="stop-color:#000000"/>
			</linearGradient>
			<polygon fill="url(#SVGID_1_)" points="295.199,232.214 166.449,103.462 127.962,141.946 295.199,309.187 			"/>
			<g>
				<linearGradient id="SVGID_2_" gradientUnits="userSpaceOnUse" x1="314.4434" y1="289.9434" x2="147.2043" y2="122.7043">
					<stop  offset="0" style="stop-color:#313131"/>
					<stop  offset="0.2261" style="stop-color:#292929"/>
					<stop  offset="0.5408" style="stop-color:#161616"/>
					<stop  offset="1" style="stop-color:#000000"/>
				</linearGradient>
				<path fill="url(#SVGID_2_)" d="M166.449,104.169l128.25,128.251v75.559l-166.03-166.034L166.449,104.169 M166.449,103.462
					l-38.487,38.483l167.237,167.241v-76.973L166.449,103.462L166.449,103.462z"/>
			</g>
			<linearGradient id="SVGID_3_" gradientUnits="userSpaceOnUse" x1="37.8765" y1="273.0908" x2="387.381" y2="-81.5286">
				<stop  offset="0" style="stop-color:#313131"/>
				<stop  offset="0.2261" style="stop-color:#292929"/>
				<stop  offset="0.5408" style="stop-color:#161616"/>
				<stop  offset="1" style="stop-color:#000000"/>
			</linearGradient>
			<polygon fill="url(#SVGID_3_)" points="295.199,-25.258 127.962,141.979 166.443,180.46 295.199,51.705 			"/>
			<linearGradient id="SVGID_4_" gradientUnits="userSpaceOnUse" x1="147.5371" y1="161.8252" x2="313.8277" y2="-6.899">
				<stop  offset="0" style="stop-color:#313131"/>
				<stop  offset="0.2261" style="stop-color:#292929"/>
				<stop  offset="0.5408" style="stop-color:#161616"/>
				<stop  offset="1" style="stop-color:#000000"/>
			</linearGradient>
			<path opacity="0.5" fill="url(#SVGID_4_)" d="M294.699-24.051v75.548L166.443,179.753l-37.774-37.773L294.699-24.051
				 M295.199-25.258L127.962,141.979l38.481,38.48L295.199,51.705V-25.258L295.199-25.258z"/>
		</g>
		<g clip-path="url(#XMLID_3_)">
			<linearGradient id="SVGID_5_" gradientUnits="userSpaceOnUse" x1="-185.2866" y1="-108.1694" x2="210.6241" y2="293.5928">
				<stop  offset="0" style="stop-color:#313131"/>
				<stop  offset="0.2261" style="stop-color:#292929"/>
				<stop  offset="0.5408" style="stop-color:#161616"/>
				<stop  offset="1" style="stop-color:#000000"/>
			</linearGradient>
			<polygon fill="url(#SVGID_5_)" points="-12.8,42.588 -12.8,94.075 159.785,266.665 185.533,240.923 			"/>
			<g>
				<linearGradient id="SVGID_6_" gradientUnits="userSpaceOnUse" x1="-24.9385" y1="54.5483" x2="172.1154" y2="254.5146">
					<stop  offset="0" style="stop-color:#313131"/>
					<stop  offset="0.2261" style="stop-color:#292929"/>
					<stop  offset="0.5408" style="stop-color:#161616"/>
					<stop  offset="1" style="stop-color:#000000"/>
				</linearGradient>
				<path fill="url(#SVGID_6_)" d="M-12.3,43.795l197.126,197.128l-25.041,25.035L-12.3,93.868V43.795 M-12.8,42.588v51.487
					l172.585,172.59l25.748-25.742L-12.8,42.588L-12.8,42.588z"/>
			</g>
			<linearGradient id="SVGID_7_" gradientUnits="userSpaceOnUse" x1="268.3818" y1="127.1724" x2="-70.9784" y2="478.2343">
				<stop  offset="0" style="stop-color:#313131"/>
				<stop  offset="0.2261" style="stop-color:#292929"/>
				<stop  offset="0.5408" style="stop-color:#161616"/>
				<stop  offset="1" style="stop-color:#000000"/>
			</linearGradient>
			<polygon fill="url(#SVGID_7_)" points="104.569,321.867 185.535,240.903 159.793,215.16 53.084,321.867 			"/>
			<linearGradient id="SVGID_8_" gradientUnits="userSpaceOnUse" x1="171.958" y1="226.9209" x2="67.089" y2="335.4059">
				<stop  offset="0" style="stop-color:#313131"/>
				<stop  offset="0.2261" style="stop-color:#292929"/>
				<stop  offset="0.5408" style="stop-color:#161616"/>
				<stop  offset="1" style="stop-color:#000000"/>
			</linearGradient>
			<path opacity="0.5" fill="url(#SVGID_8_)" d="M159.793,215.867l25.035,25.036l-80.466,80.464h-50.07L159.793,215.867
				 M159.793,215.16L53.084,321.867h51.484l80.966-80.964L159.793,215.16L159.793,215.16z"/>
		</g>
	</g>
</g>
</svg>
